@startuml
!include ../style.puml
skinparam arrowThickness 1.1
skinparam arrowColor UI_COLOR_T4
skinparam classBackgroundColor UI_COLOR

interface Model

List <|-- AbstractList
Collection <|-- AbstractCollection

Collection <|- List
AbstractCollection <|- AbstractList
AbstractList <|-- ArrayList

class ArrayList {
Object[] elementData
size()
}

enum TimeUnit {
DAYS
HOURS
MINUTES
}

@enduml