@startuml
!include style.puml
skinparam arrowThickness 1.1
skinparam arrowColor MODEL_COLOR
skinparam classBackgroundColor MODEL_COLOR

package Good {
    class Good
    class GoodName
    class GoodQuantity
    class UniqueGoodList
}

Inventory *-right- "1" UniqueGoodList

UniqueGoodList o-right- "*" Good

Good *-- "1" GoodName
Good *-- "2" GoodQuantity
@enduml
